<svg width="16" height="16" viewBox="0 0 16 16" fill="none" xmlns="http://www.w3.org/2000/svg">
<mask id="mask0_1_394" style="mask-type:alpha" maskUnits="userSpaceOnUse" x="0" y="0" width="16" height="16">
<rect width="16" height="16" fill="#D9D9D9"/>
</mask>
<g mask="url(#mask0_1_394)">
<path d="M8.00008 13.3333C7.46675 12.9111 6.88897 12.5833 6.26675 12.35C5.64453 12.1166 5.00008 12 4.33341 12C3.86675 12 3.40841 12.0611 2.95841 12.1833C2.50841 12.3055 2.07786 12.4778 1.66675 12.7C1.43341 12.8222 1.20841 12.8166 0.991748 12.6833C0.775081 12.55 0.666748 12.3555 0.666748 12.1V4.06665C0.666748 3.94442 0.697304 3.82776 0.758415 3.71665C0.819526 3.60554 0.911193 3.5222 1.03341 3.46665C1.54453 3.19998 2.07786 2.99998 2.63341 2.86665C3.18897 2.73331 3.75564 2.66665 4.33341 2.66665C4.97786 2.66665 5.60842 2.74998 6.22508 2.91665C6.84175 3.08331 7.43341 3.33331 8.00008 3.66665V11.7333C8.56675 11.3778 9.16119 11.1111 9.78341 10.9333C10.4056 10.7555 11.0334 10.6666 11.6667 10.6666C12.0667 10.6666 12.4584 10.7 12.8417 10.7666C13.2251 10.8333 13.6112 10.9333 14.0001 11.0666V3.06665C14.1667 3.1222 14.3306 3.18054 14.4917 3.24165C14.6529 3.30276 14.8112 3.37776 14.9667 3.46665C15.089 3.5222 15.1806 3.60554 15.2417 3.71665C15.3029 3.82776 15.3334 3.94442 15.3334 4.06665V12.1C15.3334 12.3555 15.2251 12.55 15.0084 12.6833C14.7917 12.8166 14.5667 12.8222 14.3334 12.7C13.9223 12.4778 13.4917 12.3055 13.0417 12.1833C12.5917 12.0611 12.1334 12 11.6667 12C11.0001 12 10.3556 12.1166 9.73342 12.35C9.11119 12.5833 8.53341 12.9111 8.00008 13.3333ZM9.33342 9.99998V3.66665L12.6667 0.333313V6.99998L9.33342 9.99998ZM6.66675 11.0833V4.48331C6.30008 4.32776 5.91953 4.20831 5.52508 4.12498C5.13064 4.04165 4.73341 3.99998 4.33341 3.99998C3.9223 3.99998 3.5223 4.03887 3.13341 4.11665C2.74453 4.19442 2.36675 4.31109 2.00008 4.46665V11.0833C2.38897 10.9389 2.77508 10.8333 3.15841 10.7666C3.54175 10.7 3.93341 10.6666 4.33341 10.6666C4.73341 10.6666 5.12508 10.7 5.50842 10.7666C5.89175 10.8333 6.27786 10.9389 6.66675 11.0833Z" fill="#7E818C"/>
</g>
</svg>
