<svg width="19" height="19" viewBox="0 0 19 19" fill="none" xmlns="http://www.w3.org/2000/svg">
<mask id="mask0_1_446" style="mask-type:alpha" maskUnits="userSpaceOnUse" x="0" y="0" width="19" height="19">
<rect x="0.210938" y="0.210938" width="18.0282" height="18.0282" fill="#D9D9D9"/>
</mask>
<g mask="url(#mask0_1_446)">
<path d="M8.62418 6.50199L11.2533 1.99495C12.3926 2.29542 13.4035 2.84628 14.2861 3.64753C15.1688 4.44878 15.8104 5.40027 16.211 6.50199H8.62418ZM6.53967 8.37992L3.9669 3.87288C4.64296 3.20934 5.42856 2.68352 6.32371 2.29542C7.21886 1.90731 8.18599 1.71326 9.22512 1.71326C9.38787 1.71326 9.57566 1.72265 9.7885 1.74143C10.0013 1.76021 10.1954 1.78211 10.3707 1.80715L6.53967 8.37992ZM1.95751 11.1029C1.88239 10.8025 1.82293 10.4957 1.77911 10.1827C1.73529 9.86975 1.71338 9.5505 1.71338 9.22499C1.71338 8.33611 1.85735 7.49729 2.1453 6.70856C2.43325 5.91983 2.84014 5.19995 3.36596 4.54894L7.15939 11.1029H1.95751ZM7.21573 16.455C6.07645 16.1546 5.06236 15.6037 4.17347 14.8025C3.28458 14.0012 2.63983 13.0497 2.2392 11.948H9.80728L7.21573 16.455ZM9.22512 16.7367C9.03732 16.7367 8.8464 16.7242 8.65235 16.6992C8.45829 16.6741 8.27363 16.6491 8.09836 16.6241L11.9106 10.0701L14.4833 14.5771C13.8073 15.2406 13.0217 15.7665 12.1265 16.1546C11.2314 16.5427 10.2642 16.7367 9.22512 16.7367ZM15.0843 13.9011L11.2908 7.34706H16.4927C16.5678 7.64753 16.6273 7.95426 16.6711 8.26725C16.7149 8.58024 16.7369 8.89949 16.7369 9.22499C16.7369 10.1014 16.5835 10.9402 16.2768 11.7414C15.97 12.5427 15.5725 13.2626 15.0843 13.9011Z" fill="#640D6B"/>
</g>
</svg>
