<svg width="19" height="19" viewBox="0 0 19 19" fill="none" xmlns="http://www.w3.org/2000/svg">
<mask id="mask0_1_474" style="mask-type:alpha" maskUnits="userSpaceOnUse" x="0" y="0" width="19" height="19">
<rect x="0.210938" y="0.210938" width="18.0282" height="18.0282" fill="#D9D9D9"/>
</mask>
<g mask="url(#mask0_1_474)">
<path d="M8.24859 9.76964L7.61009 8.8119C7.54749 8.71174 7.45986 8.63036 7.34718 8.56776C7.23451 8.50517 7.11557 8.47387 6.99037 8.47387H2.07019C1.93247 8.14836 1.83857 7.83537 1.7885 7.5349C1.73842 7.23443 1.71338 6.92144 1.71338 6.59593C1.71338 5.41909 2.10775 4.43631 2.89648 3.64758C3.68521 2.85884 4.668 2.46448 5.84483 2.46448C6.49585 2.46448 7.11557 2.60219 7.70399 2.87762C8.29241 3.15305 8.79945 3.54116 9.22512 4.04194C9.65078 3.54116 10.1578 3.15305 10.7462 2.87762C11.3347 2.60219 11.9544 2.46448 12.6054 2.46448C13.7822 2.46448 14.765 2.85884 15.5538 3.64758C16.3425 4.43631 16.7369 5.41909 16.7369 6.59593C16.7369 6.92144 16.7118 7.23443 16.6617 7.5349C16.6117 7.83537 16.5178 8.14836 16.38 8.47387H11.9106L10.6148 6.55837C10.5397 6.4457 10.4426 6.36119 10.3237 6.30485C10.2048 6.24852 10.0764 6.22035 9.93873 6.22035C9.77598 6.22035 9.63513 6.26729 9.5162 6.36119C9.39726 6.45509 9.31275 6.57715 9.26268 6.72739L8.24859 9.76964ZM9.22512 16.2485L8.13591 15.272C6.82136 14.0952 5.74468 13.0873 4.90587 12.2485C4.06706 11.4097 3.40978 10.6523 2.93404 9.97621H6.53967L7.83545 11.8917C7.91056 12.0044 8.00759 12.0889 8.12652 12.1452C8.24546 12.2016 8.37379 12.2297 8.5115 12.2297C8.67426 12.2297 8.8151 12.1828 8.93404 12.0889C9.05297 11.995 9.13748 11.8729 9.18756 11.7227L10.2016 8.66166L10.8589 9.63819C10.9215 9.73834 11.0092 9.81972 11.1218 9.88232C11.2345 9.94492 11.3534 9.97621 11.4786 9.97621H15.5162C15.0405 10.6523 14.3832 11.4097 13.5444 12.2485C12.7056 13.0873 11.6289 14.0952 10.3143 15.272L9.22512 16.2485Z" fill="#E65C19"/>
</g>
</svg>
