<svg width="19" height="19" viewBox="0 0 19 19" fill="none" xmlns="http://www.w3.org/2000/svg">
<mask id="mask0_1_451" style="mask-type:alpha" maskUnits="userSpaceOnUse" x="0" y="0" width="19" height="19">
<rect x="0.210938" y="0.210938" width="18.0282" height="18.0282" fill="#D9D9D9"/>
</mask>
<g mask="url(#mask0_1_451)">
<path d="M1.71338 18.2391V15.2344H16.7369V18.2391H1.71338ZM3.21573 13.732V10.5395L11.6289 2.14518C11.7666 2.00747 11.9262 1.90105 12.1077 1.82593C12.2893 1.75082 12.4802 1.71326 12.6805 1.71326C12.8808 1.71326 13.0749 1.75082 13.2627 1.82593C13.4505 1.90105 13.6195 2.01373 13.7697 2.16396L14.8026 3.2156C14.9528 3.35332 15.0624 3.51607 15.1312 3.70387C15.2001 3.89166 15.2345 4.08571 15.2345 4.28603C15.2345 4.47382 15.2001 4.65848 15.1312 4.84002C15.0624 5.02155 14.9528 5.18744 14.8026 5.33767L6.40821 13.732H3.21573ZM12.6805 5.31889L13.7322 4.26725L12.6805 3.2156L11.6289 4.26725L12.6805 5.31889Z" fill="#640D6B"/>
</g>
</svg>
