<svg width="19" height="19" viewBox="0 0 19 19" fill="none" xmlns="http://www.w3.org/2000/svg">
<mask id="mask0_1_441" style="mask-type:alpha" maskUnits="userSpaceOnUse" x="0" y="0" width="19" height="19">
<rect x="0.210938" y="0.210938" width="18.0282" height="18.0282" fill="#D9D9D9"/>
</mask>
<g mask="url(#mask0_1_441)">
<path d="M0.210938 11.4786V6.97152H1.71328V11.4786H0.210938ZM2.46446 12.9809V5.46917H3.96681V12.9809H2.46446ZM16.7368 11.4786V6.97152H18.2391V11.4786H16.7368ZM14.4832 12.9809V5.46917H15.9856V12.9809H14.4832ZM6.22033 15.9856C5.80718 15.9856 5.4535 15.8385 5.15929 15.5443C4.86508 15.2501 4.71798 14.8964 4.71798 14.4833V3.96683C4.71798 3.55368 4.86508 3.2 5.15929 2.90579C5.4535 2.61158 5.80718 2.46448 6.22033 2.46448H12.2297C12.6429 2.46448 12.9965 2.61158 13.2908 2.90579C13.585 3.2 13.7321 3.55368 13.7321 3.96683V14.4833C13.7321 14.8964 13.585 15.2501 13.2908 15.5443C12.9965 15.8385 12.6429 15.9856 12.2297 15.9856H6.22033Z" fill="#640D6B"/>
</g>
</svg>
